<?xml version="1.0" encoding="UTF-8" standalone="no"?>
<svg width="202px" height="200px" viewBox="0 0 202 200" version="1.1" xmlns="http://www.w3.org/2000/svg" xmlns:xlink="http://www.w3.org/1999/xlink">
    <!-- Generator: Sketch 40.3 (33839) - http://www.bohemiancoding.com/sketch -->
    <title>Slice 1</title>
    <desc>Created with Sketch.</desc>
    <defs></defs>
    <g id="Page-1" stroke="none" stroke-width="1" fill="none" fill-rule="evenodd">
        <g id="TasksFull_plain">
            <g id="svg3003" transform="translate(1.000000, 0.000000)"></g>
            <g id="g3299" transform="translate(0.104466, 0.000000)" fill="#A2B0C7">
                <g id="svg3289">
                    <path d="M174.694159,187.398 L27.0918123,187.398 C19.5918123,187.398 13.4930836,181.299 13.4930836,173.799 L13.4930836,26.1963 C13.4930836,18.6963 19.5918123,12.5975 27.0918123,12.5975 L174.694159,12.5975 C182.194259,12.5975 188.293088,18.6963 188.293088,26.1963 L188.293088,173.799 C188.293088,181.299 182.194259,187.398 174.694159,187.398 L174.694159,187.398 Z M182.995842,200 L18.7905289,200 C8.89303562,200 0.895534322,191.996 0.895534322,182.099 L0.895534322,17.9 C0.895534322,7.99751 8.89303562,4.57764e-05 18.7905289,4.57764e-05 L183.092792,4.57764e-05 C192.892696,4.57764e-05 200.895534,7.99751 200.895534,17.9 L200.895534,182.196 C200.895534,191.996 192.892696,200 182.995842,200 L182.995842,200 Z M174.992004,7.99751 L26.794267,7.99751 C16.8918163,7.99751 8.89303562,15.995 8.89303562,25.8975 L8.89303562,174.199 C8.89303562,183.999 16.8918163,191.996 26.794267,191.996 L175.093951,191.996 C184.991804,191.996 192.995642,183.999 192.995642,174.096 L192.995642,25.8975 C192.892696,15.995 184.893855,7.99751 174.992004,7.99751 L174.992004,7.99751 Z" id="path3291"></path>
                </g>
            </g>
            <g id="g3315" transform="translate(40.591617, 20.181725)" fill="#002D5C">
                <g id="svg3305">
                    <path d="M0,143.591728 L0,28.7183456 C0,21.9211235 5.50671,16.4104832 12.3,16.4104832 L30.75041,16.4100729 C30.75041,16.4100729 34.84959,15.9210405 34.84959,10.256552 C34.84959,4.59206346 41.48831,0 47.14918,0 L75.85041,0 C81.51169,0 88.15041,4.59206346 88.15041,10.256552 C88.15041,15.9210405 92.24959,16.4100729 92.24959,16.4100729 L110.7,16.4108935 C117.49329,16.4108935 123,21.9211235 123,28.7187559 L123,143.592138 C123,150.38936 117.49288,155.89959 110.7,155.900001 L12.3,155.89959 C5.50671,155.89959 0,150.38936 0,143.591728 L0,143.591728 Z M53.29877,12.3086829 C47.6379,12.3086829 43.04877,16.9007464 43.04877,22.5652349 C43.04877,28.2297235 38.94959,32.8213767 38.94959,32.8213767 L84.05,32.8213767 C84.05,32.8213767 79.95082,28.2297235 79.95082,22.5652349 C79.95082,16.9007464 75.36169,12.3086829 69.70082,12.3086829 L53.29877,12.3086829 L53.29877,12.3086829 Z M22.55,45.1292391 L28.7,28.7183456 L12.3,28.7183456 L12.3,143.591728 L110.7,143.591728 L110.7,28.7187559 L94.3,28.7187559 L100.45,45.1292391 L22.55,45.1292391 L22.55,45.1292391 Z M23.99853,103.756511 L21.2954,100.81206 C20.57708,100.034203 20.61521,98.8120322 21.40282,98.0829965 L29.25227,90.7877162 C29.60938,90.4541731 30.07801,90.2703757 30.56714,90.2703757 C31.10875,90.2703757 31.60813,90.4923275 31.9759,90.8849483 L53.52796,114.103731 L90.59811,66.377943 C90.96588,65.9163981 91.52799,65.6419328 92.12495,65.6419328 L93.31149,66.0480923 L101.77471,72.6245934 C102.17364,72.9404952 102.43399,73.3991682 102.5,73.9197908 C102.56232,74.4268747 102.42702,74.9335484 102.12157,75.3327334 L54.48941,136.617273 L23.99853,103.756511 L23.99853,103.756511 Z" id="path3307"></path>
                </g>
            </g>
        </g>
    </g>
</svg>